<?xml version="1.0" encoding="utf-8"?>
<!-- Generator: Adobe Illustrator 25.0.0, SVG Export Plug-In . SVG Version: 6.00 Build 0)  -->
<svg version="1.1" id="Layer_1" xmlns="http://www.w3.org/2000/svg" xmlns:xlink="http://www.w3.org/1999/xlink" x="0px" y="0px"
	 viewBox="0 0 582.128 582.128" style="enable-background:new 0 0 582.128 582.128;" xml:space="preserve">
<style type="text/css">
	.st0{fill:#BAC7CB;}
	.st1{fill:#312D2F;}
	.st2{fill:none;}
	.st3{fill:#FFF0E0;}
</style>
<g>
	<circle class="st0" cx="291.064" cy="290.499" r="270.227"/>
	<circle class="st0" cx="291.064" cy="290.499" r="279.002"/>
	<g>
		
			<image style="overflow:visible;" width="1817" height="1817" xlink:href="6447591C.png"  transform="matrix(0.24 0 0 0.24 73.0051 72.4128)">
		</image>
	</g>
	<g>
		
			<image style="overflow:visible;" width="1579" height="1768" xlink:href="6447591B.png"  transform="matrix(0.24 0 0 0.24 74.4451 84.6528)">
		</image>
	</g>
	<g>
		<g>
			<path class="st1" d="M61.708,183.494l8.828-16.089c2.967-5.406,6.568-8.79,10.804-10.151c4.236-1.36,8.972-0.606,14.204,2.266
				c5.233,2.871,8.483,6.512,9.75,10.92c1.267,4.408,0.428,9.295-2.515,14.658l-2.492,4.542l11.354,6.229l-6.336,11.548
				L61.708,183.494z M92.947,179.786c1.804-3.287,0.522-6.129-3.847-8.527c-2.206-1.21-3.992-1.669-5.362-1.381
				c-1.368,0.291-2.516,1.279-3.441,2.966l-2.456,4.477l12.65,6.941L92.947,179.786z"/>
			<path class="st1" d="M94.212,131.2l13.597-14.539c4.244-4.541,8.5-6.959,12.766-7.261c4.266-0.3,8.471,1.488,12.614,5.362
				c4.145,3.874,6.239,8.604,6.288,14.187l16.986,8.487l-9.856,10.541l-13.448-7.611l-4.6,4.919l10.973,10.259l-8.996,9.622
				L94.212,131.2z M125.094,132.52c1.078-1.153,1.472-2.457,1.178-3.914c-0.293-1.455-1.07-2.773-2.332-3.953
				c-1.225-1.145-2.599-1.772-4.12-1.877c-1.521-0.106-2.806,0.4-3.85,1.516l-4.599,4.919l8.972,8.389L125.094,132.52z"/>
			<path class="st1" d="M184.453,110.395l-12.228,7.801l2.611,5.882l-11.229,7.165l-18.696-47.058l20.213-12.894l34.792,36.79
				l-11.229,7.164L184.453,110.395z M162.2,85.971l-2.745,1.751l8.513,19.672l8.484-5.412L162.2,85.971z"/>
			<path class="st1" d="M193.577,57.451l12.277-4.772l18.019,46.349l-12.277,4.772L193.577,57.451z"/>
			<path class="st1" d="M231.051,44.505l19.626-3.324c6.129-1.037,10.98-0.383,14.556,1.963c3.574,2.347,5.835,6.318,6.782,11.91
				c0.947,5.594-0.253,10.626-3.599,15.096l8.366,17.046l-14.228,2.41l-6.083-14.207l-6.64,1.125l2.508,14.812l-12.986,2.198
				L231.051,44.505z M254.813,64.272c1.557-0.263,2.659-1.063,3.31-2.398c0.648-1.335,0.829-2.854,0.541-4.558
				c-0.28-1.652-0.993-2.983-2.14-3.99c-1.146-1.007-2.475-1.383-3.98-1.127l-6.64,1.125l2.051,12.111L254.813,64.272z"/>
			<path class="st1" d="M293.181,37.886l13.164,0.468l-1.771,49.697l-13.163-0.469L293.181,37.886z"/>
			<path class="st1" d="M342.503,55.026l-1.739,7.572l15.434,3.547l-2.519,10.961l-15.434-3.545l-1.739,7.573l19.76,4.539
				l-2.567,11.179l-32.6-7.488l11.135-48.466l32.599,7.489l-2.567,11.179L342.503,55.026z"/>
			<path class="st1" d="M367.743,101.059l-2.132-1.705l5.627-8.45c5.456,3.664,9.778,6.278,12.968,7.842
				c3.455,1.693,5.77,1.345,6.942-1.047c0.412-0.841,0.35-1.696-0.187-2.565c-0.536-0.867-1.416-1.957-2.64-3.271
				c-0.801-0.832-1.369-1.468-1.702-1.905c-4.182-4.139-6.791-7.808-7.83-11.01c-1.041-3.202-0.756-6.441,0.851-9.72
				c2.28-4.65,5.425-7.478,9.433-8.479c4.007-1.002,8.447-0.309,13.32,2.081c1.993,0.978,3.821,2.038,5.485,3.184
				c1.664,1.145,4.67,3.334,9.02,6.565l-5.426,8.713c-5.433-3.487-9.7-5.992-12.8-7.512c-3.633-1.781-5.938-1.675-6.914,0.318
				c-0.326,0.665-0.161,1.446,0.498,2.346c0.657,0.9,1.764,2.171,3.322,3.813c1.601,1.666,2.625,2.771,3.07,3.319
				c2.338,2.629,4.026,4.899,5.067,6.811c1.04,1.911,1.524,3.838,1.451,5.781c-0.073,1.941-0.707,4.131-1.901,6.567
				c-1.521,3.101-3.538,5.393-6.053,6.881c-2.515,1.487-5.277,2.192-8.29,2.117c-3.012-0.076-6.046-0.863-9.103-2.362
				C376.011,107.503,371.985,104.732,367.743,101.059z"/>
			<path class="st1" d="M459.007,117.713l-8.309-8.54l8.328-8.102l25.8,26.521l-8.327,8.102l-8.205-8.435l-27.316,26.575
				l-9.288-9.549L459.007,117.713z"/>
			<path class="st1" d="M462.37,171.603c1.864-4.938,6.635-9.639,14.31-14.106c7.76-4.515,14.284-6.399,19.571-5.651
				c5.285,0.748,9.84,4.405,13.661,10.972c3.82,6.566,4.749,12.333,2.788,17.299c-1.963,4.965-6.803,9.695-14.52,14.185
				c-7.377,4.292-13.738,6.111-19.086,5.455c-5.347-0.655-9.956-4.311-13.826-10.962C461.472,182.27,460.505,176.54,462.37,171.603z
				 M478.653,186.272c1.39,0.474,3.093,0.411,5.111-0.192c2.017-0.604,4.539-1.786,7.567-3.547c4.52-2.629,7.464-5,8.834-7.11
				c1.369-2.109,1.335-4.4-0.104-6.873c-1.415-2.431-3.396-3.577-5.938-3.437c-2.545,0.139-6.077,1.525-10.597,4.154
				c-4.009,2.333-6.81,4.532-8.402,6.601c-1.594,2.068-1.596,4.467-0.008,7.197C476.085,184.726,477.264,185.796,478.653,186.272z"
				/>
		</g>
		<g>
			<path class="st1" d="M97.035,338.89l5.404,12.818l-33.771,19.139l0.172,0.409l38.932-7.661l5.952,14.114l-32.665,22.526
				l0.173,0.408l37.278-10.819l5.434,12.888l-49.357,10.933l-7.303-17.319l29.296-19.659l-34.528,7.249l-7.33-17.388L97.035,338.89z
				"/>
			<path class="st1" d="M107.501,450.827c0.601-5.242,4.077-10.967,10.429-17.173c6.422-6.274,12.288-9.695,17.598-10.262
				c5.309-0.566,10.618,1.867,15.928,7.302c5.309,5.434,7.619,10.799,6.931,16.093c-0.69,5.295-4.229,11.062-10.614,17.303
				c-6.105,5.965-11.83,9.282-17.176,9.952c-5.345,0.672-10.707-1.746-16.085-7.25C109.236,461.392,106.899,456.072,107.501,450.827
				z M126.875,461.075c1.463,0.12,3.1-0.358,4.908-1.436c1.809-1.078,3.967-2.84,6.473-5.288c3.739-3.653,6.016-6.673,6.828-9.053
				c0.812-2.381,0.22-4.595-1.779-6.641c-1.966-2.011-4.166-2.638-6.598-1.882c-2.435,0.757-5.521,2.964-9.262,6.617
				c-3.316,3.241-5.496,6.059-6.533,8.454c-1.041,2.395-0.457,4.721,1.75,6.98C124.007,460.203,125.41,460.952,126.875,461.075z"/>
			<path class="st1" d="M163.004,498.782c-0.996-5.183,0.605-11.686,4.806-19.509c4.247-7.911,8.819-12.932,13.715-15.062
				s10.69-1.399,17.384,2.193c6.693,3.595,10.505,8.021,11.434,13.279c0.928,5.258-0.72,11.82-4.943,19.687
				c-4.037,7.521-8.506,12.399-13.404,14.642c-4.899,2.24-10.738,1.541-17.52-2.1C167.824,508.343,164.001,503.966,163.004,498.782z
				 M184.559,502.754c1.433-0.322,2.85-1.27,4.254-2.84c1.401-1.569,2.933-3.897,4.59-6.984c2.473-4.606,3.741-8.169,3.804-10.682
				c0.062-2.515-1.168-4.448-3.688-5.803c-2.478-1.33-4.765-1.27-6.858,0.182c-2.095,1.451-4.38,4.48-6.853,9.087
				c-2.193,4.086-3.429,7.427-3.702,10.022c-0.274,2.597,0.979,4.643,3.761,6.136C181.561,502.782,183.125,503.076,184.559,502.754z
				"/>
			<path class="st1" d="M265.51,490.918c2.865,1.7,4.655,4.363,5.371,7.99c0.715,3.627,0.41,8.928-0.918,15.907
				c-1.199,6.302-2.646,11.071-4.344,14.314c-1.697,3.244-4.32,5.418-7.87,6.525c-3.552,1.106-8.597,1.038-15.14-0.208
				l-15.775-3.002l9.299-48.851l15.773,3.002C258.109,487.776,262.644,489.218,265.51,490.918z M251.1,523.691
				c1.516-0.841,2.66-2.242,3.436-4.203c0.775-1.963,1.519-4.808,2.229-8.54c0.572-3.005,0.789-5.336,0.652-6.995
				c-0.137-1.656-0.791-2.963-1.966-3.915c-1.175-0.95-3.097-1.682-5.761-2.188l-2.762-0.526l-5.01,26.316l2.764,0.524
				C247.443,524.691,249.582,524.534,251.1,523.691z"/>
			<path class="st1" d="M325.053,526.672l0.873,11.586l-28.852,2.174l-3.737-49.587l13.135-0.99l2.863,38.003L325.053,526.672z"/>
			<path class="st1" d="M376.162,518.327l-13.709,4.737l1.169,6.33l-12.589,4.351l-7.22-50.119l22.661-7.83l25.265,43.883
				l-12.59,4.351L376.162,518.327z M360.211,489.39l-3.077,1.064l3.695,21.114l9.512-3.286L360.211,489.39z"/>
			<path class="st1" d="M425.443,438.607l29.872,39.755l-16.86,12.669l-29.194-25.548l22.806,30.35l-10.53,7.912l-29.873-39.755
				l17.274-12.979l27.95,25l-22.094-29.402L425.443,438.607z"/>
			<path class="st1" d="M459.458,398.503c2.729-1.909,5.894-2.444,9.493-1.604c3.6,0.843,8.306,3.305,14.117,7.39
				c5.247,3.688,8.998,6.974,11.254,9.854c2.257,2.884,3.157,6.169,2.703,9.859c-0.453,3.692-2.595,8.262-6.425,13.71l-9.234,13.138
				l-40.684-28.596l9.233-13.138C453.548,403.952,456.728,400.414,459.458,398.503z M483.387,425.135
				c-0.143-1.728-0.948-3.349-2.416-4.863c-1.469-1.514-3.756-3.363-6.864-5.548c-2.502-1.759-4.537-2.917-6.104-3.477
				c-1.565-0.559-3.025-0.499-4.377,0.181c-1.351,0.678-2.808,2.127-4.366,4.347l-1.618,2.3l21.916,15.405l1.618-2.302
				C482.791,428.877,483.528,426.863,483.387,425.135z"/>
			<path class="st1" d="M517.466,387.972l-1.428,2.327l-9.081-4.539c2.962-5.867,5.021-10.48,6.179-13.838
				c1.254-3.638,0.621-5.892-1.896-6.76c-0.886-0.305-1.727-0.137-2.521,0.502c-0.794,0.64-1.768,1.648-2.921,3.023
				c-0.727,0.898-1.286,1.54-1.681,1.925c-3.589,4.662-6.908,7.704-9.957,9.132c-3.049,1.429-6.299,1.546-9.751,0.357
				c-4.897-1.688-8.091-4.458-9.58-8.312c-1.49-3.852-1.351-8.344,0.417-13.476c0.724-2.099,1.552-4.043,2.482-5.837
				c0.931-1.792,2.73-5.046,5.399-9.762l9.317,4.308c-2.79,5.822-4.747,10.366-5.873,13.631c-1.317,3.824-0.927,6.098,1.171,6.821
				c0.7,0.241,1.455-0.02,2.268-0.784c0.811-0.765,1.936-2.02,3.373-3.77c1.453-1.794,2.425-2.945,2.913-3.456
				c2.32-2.646,4.364-4.602,6.133-5.87c1.768-1.27,3.62-1.988,5.557-2.155c1.936-0.166,4.187,0.19,6.752,1.075
				c3.266,1.126,5.79,2.844,7.576,5.155c1.787,2.312,2.828,4.967,3.125,7.964c0.298,3-0.108,6.107-1.218,9.326
				C522.838,378.972,520.586,383.307,517.466,387.972z"/>
		</g>
	</g>
	<circle class="st2" cx="291.064" cy="290.527" r="179.167"/>
	<g>
		<defs>
			
				<ellipse id="SVGID_1_" transform="matrix(0.7071 -0.7071 0.7071 0.7071 -120.1631 290.8984)" cx="291.064" cy="290.499" rx="182.828" ry="182.828"/>
		</defs>
		<clipPath id="SVGID_2_">
			<use xlink:href="#SVGID_1_"  style="overflow:visible;"/>
		</clipPath>
		<g style="clip-path:url(#SVGID_2_);">
			
				<image style="overflow:visible;" width="1600" height="1041" xlink:href="Mother-and-baby-Buffalo1.png"  transform="matrix(0.2856 0 0 0.2856 62.5783 186.3951)">
			</image>
		</g>
	</g>
	<g>
		<path class="st1" d="M473.443,290.527c0.037,11.94-1.123,23.877-3.352,35.613c-2.167,11.754-5.583,23.268-9.933,34.427
			c-4.4,11.141-9.869,21.886-16.325,32.035c-6.469,10.139-13.929,19.683-22.289,28.405c-8.385,8.691-17.609,16.626-27.613,23.472
			c-2.538,1.652-5.034,3.377-7.613,4.969c-2.619,1.526-5.191,3.14-7.854,4.592c-2.703,1.376-5.36,2.849-8.104,4.142l-4.137,1.899
			c-1.386,0.617-2.742,1.307-4.164,1.84c-22.371,9.475-46.75,14.137-70.994,13.913c-12.126-0.142-24.227-1.503-36.056-4.039
			c-11.827-2.554-23.379-6.274-34.444-11.066c-11.064-4.795-21.634-10.679-31.515-17.523c-9.911-6.802-19.148-14.551-27.58-23.084
			c-16.883-17.049-30.465-37.319-39.805-59.428l-1.682-4.174c-0.546-1.397-1.161-2.769-1.62-4.199l-1.475-4.254
			c-0.477-1.423-1.023-2.824-1.411-4.275c-0.823-2.886-1.776-5.74-2.508-8.653c-0.688-2.923-1.486-5.825-2.083-8.771
			c-2.491-11.764-3.819-23.788-3.99-35.841c-0.331-24.095,3.977-48.381,13.057-70.877c9.017-22.514,22.674-43.18,39.773-60.462
			c17.098-17.287,37.626-31.211,60.095-40.658c11.222-4.752,22.952-8.306,34.91-10.677c11.957-2.368,24.147-3.594,36.334-3.571
			c24.358,0.152,48.747,4.945,71.123,14.541c1.422,0.541,2.777,1.238,4.163,1.862l4.135,1.921c2.743,1.307,5.398,2.795,8.098,4.185
			c2.662,1.463,5.233,3.087,7.85,4.623c2.577,1.603,5.071,3.337,7.607,4.999c9.993,6.885,19.201,14.853,27.565,23.574
			c8.35,8.738,15.828,18.272,22.293,28.422c6.455,10.156,11.922,20.906,16.321,32.053c4.351,11.164,7.757,22.685,9.917,34.443
			C472.354,266.646,473.495,278.587,473.443,290.527z M472.643,290.527c-0.082-11.884-1.257-23.765-3.67-35.392
			c-2.465-11.61-5.998-22.997-10.771-33.837c-9.43-21.736-23.369-41.349-40.321-57.588c-8.49-8.118-17.782-15.338-27.591-21.697
			c-2.499-1.518-4.951-3.108-7.481-4.567c-2.568-1.392-5.088-2.869-7.688-4.191c-2.623-1.279-5.197-2.656-7.854-3.855l-4.004-1.759
			c-1.341-0.57-2.651-1.215-4.026-1.703c-10.824-4.324-22.031-7.669-33.46-9.88c-11.43-2.209-23.073-3.285-34.711-3.244
			c-11.637,0.053-23.269,1.142-34.679,3.406c-11.41,2.255-22.589,5.64-33.371,10.011c-21.557,8.775-41.37,21.874-57.968,38.277
			c-16.592,16.414-29.957,36.088-39.163,57.601c-4.602,10.756-8.164,21.971-10.632,33.44c-2.458,11.473-3.781,23.205-3.976,34.977
			c-0.141,11.772,0.846,23.57,2.987,35.173c0.51,2.905,1.219,5.771,1.818,8.662c0.279,1.451,0.724,2.861,1.091,4.29l1.157,4.276
			c0.36,1.434,0.877,2.819,1.326,4.226l1.389,4.208c0.43,1.415,1.016,2.773,1.534,4.157l1.595,4.136
			c8.882,21.917,22.322,41.988,39.13,58.635c8.422,8.305,17.685,15.744,27.576,22.186c9.918,6.402,20.45,11.818,31.392,16.142
			c21.888,8.675,45.408,12.804,68.794,12.56c11.703-0.103,23.362-1.4,34.815-3.654c11.45-2.295,22.658-5.724,33.484-10.099
			c1.375-0.495,2.684-1.147,4.025-1.725l4.003-1.781c2.656-1.213,5.228-2.605,7.848-3.898c2.599-1.334,5.118-2.82,7.684-4.222
			c2.528-1.468,4.978-3.069,7.474-4.596c9.797-6.399,19.073-13.651,27.542-21.798c16.954-16.252,30.898-35.874,40.322-57.622
			c4.773-10.845,8.296-22.24,10.755-33.854C471.42,314.295,472.576,302.411,472.643,290.527z"/>
	</g>
	<g>
		<g>
			<path class="st1" d="M291.064,571.082c-36.579-0.054-73.168-6.94-107.223-20.591c-2.165-0.764-4.229-1.768-6.341-2.66
				l-6.307-2.751l-1.577-0.688l-1.544-0.759l-3.083-1.528l-6.171-3.054l-1.544-0.763l-1.506-0.834l-3.013-1.668l-6.029-3.338
				c-1.016-0.538-1.992-1.144-2.966-1.753l-2.931-1.813l-5.865-3.628c-15.448-9.981-29.96-21.473-43.213-34.314
				c-13.213-12.873-25.241-27.025-35.645-42.321l-3.801-5.802l-1.9-2.903c-0.639-0.965-1.274-1.932-1.842-2.939l-3.518-5.982
				l-1.759-2.992l-0.88-1.497l-0.808-1.535l-3.201-6.161l-1.6-3.082l-0.795-1.543l-0.725-1.578l-2.898-6.312
				c-0.943-2.114-1.993-4.183-2.798-6.356c-14.332-34.173-21.53-71.304-21.269-108.308c0.166-18.504,2.169-36.98,5.967-55.056
				c3.815-18.074,9.416-35.747,16.692-52.675c7.287-16.922,16.175-33.134,26.567-48.299c10.348-15.195,22.171-29.36,35.205-42.287
				c26.057-25.869,57.094-46.664,90.951-60.89l6.392-2.561c2.139-0.831,4.24-1.768,6.429-2.466l6.513-2.243
				c2.178-0.726,4.323-1.557,6.545-2.146l6.611-1.941c2.21-0.623,4.391-1.364,6.638-1.85l6.702-1.615l3.352-0.807l1.677-0.398
				l1.694-0.319c18.004-3.748,36.392-5.714,54.813-5.913c36.831-0.368,73.875,6.388,108.164,20.335
				c34.313,13.863,65.796,34.742,92.115,60.854c26.323,26.112,47.503,57.439,61.85,91.702
				c14.413,34.245,21.663,71.445,21.675,108.577c-0.175,37.127-7.478,74.287-22.004,108.44c-0.818,2.171-1.876,4.239-2.822,6.354
				l-2.912,6.314l-0.729,1.578l-0.798,1.544l-1.607,3.082l-3.215,6.162l-0.813,1.535l-0.884,1.496l-1.768,2.991l-3.536,5.979
				c-0.571,1.007-1.208,1.974-1.85,2.938l-1.909,2.901l-3.817,5.798c-10.449,15.283-22.513,29.418-35.759,42.267
				c-13.27,12.831-27.772,24.343-43.231,34.319l-5.868,3.628l-2.933,1.812c-0.974,0.609-1.95,1.214-2.967,1.753l-6.031,3.338
				l-3.014,1.667l-1.507,0.833l-1.544,0.763l-6.174,3.053l-3.085,1.527l-1.544,0.758l-1.578,0.688l-6.309,2.751
				c-2.113,0.892-4.177,1.896-6.343,2.66c-17.05,6.757-34.687,12.004-52.684,15.379
				C327.653,569.379,309.359,571.135,291.064,571.082z M291.064,570.182c18.232-0.098,36.46-1.892,54.308-5.553
				c17.83-3.718,35.315-9.109,52.002-16.339c33.438-14.327,63.736-35.524,88.881-61.471c12.569-12.992,23.791-27.22,33.647-42.296
				l3.574-5.732l1.787-2.864c0.601-0.951,1.198-1.905,1.729-2.899l3.292-5.894l1.646-2.945l0.823-1.472l0.754-1.509l3.028-6.028
				l1.515-3.013l0.752-1.509l0.682-1.542l2.73-6.166c0.886-2.065,1.884-4.082,2.643-6.2c6.727-16.668,11.905-33.95,15.337-51.578
				c3.43-17.628,5.113-35.587,5.073-53.543c-0.065-17.954-1.764-35.901-5.255-53.507c-3.481-17.605-8.706-34.857-15.485-51.478
				c-13.591-33.236-33.842-63.759-59.171-89.308c-25.342-25.541-55.709-46.092-88.895-60.167
				c-16.592-7.039-33.883-12.463-51.555-16.183c-17.676-3.71-35.736-5.672-53.842-5.897c-18.105-0.153-36.24,1.431-54.062,4.784
				l-1.677,0.282l-1.661,0.361l-3.321,0.733l-6.644,1.465c-2.229,0.436-4.392,1.127-6.587,1.7l-6.564,1.8
				c-2.202,0.557-4.329,1.357-6.489,2.05l-6.461,2.147c-2.172,0.666-4.257,1.57-6.382,2.369l-6.349,2.463
				c-16.829,6.833-32.92,15.47-48.047,25.534C121.687,70.842,107.643,82.52,94.81,95.375
				c-12.781,12.913-24.244,27.113-34.202,42.276c-9.916,15.191-18.353,31.331-25.047,48.148
				c-13.45,33.622-20.036,69.792-19.756,105.829c0.121,18.028,2.054,36.006,5.534,53.66c3.524,17.65,8.795,34.938,15.613,51.593
				c0.771,2.116,1.779,4.132,2.667,6.199l2.745,6.168l0.686,1.542l0.756,1.509l1.522,3.013l3.043,6.029l0.758,1.509l0.827,1.472
				l1.655,2.944l3.309,5.891c0.533,0.993,1.133,1.946,1.737,2.897l1.796,2.862l3.591,5.728c9.901,15.063,21.16,29.274,33.762,42.242
				c25.16,25.949,55.468,47.151,88.92,61.471c16.692,7.231,34.186,12.611,52.02,16.322
				C254.595,568.355,272.83,570.153,291.064,570.182z"/>
		</g>
	</g>
	<g>
		<g>
			<path class="st1" d="M62.06,239.499c7.377,0.357,12.206,3.538,15.616,9.483c3.917,6.829,2.91,19.245-3.603,24.756
				c-2.119,1.793-4.045,3.811-6.118,5.66c-1.273,1.135-0.095,1.763,0.495,2.309c1.13,1.046,2.611,1.745,3.626,2.876
				c4.451,4.959,7.313,10.549,6.763,17.506c-0.392,4.961-1.966,9.339-5.561,12.861c-5.251,5.145-13.533,6.181-19.765,1.812
				c-6.932-4.859-9.457-11.606-8.792-19.67c0.402-4.872,3.067-8.84,6.407-12.301c1.708-1.77,3.523-3.442,5.339-5.104
				c0.8-0.732,0.732-1.246-0.015-1.977c-1.997-1.953-4.123-3.82-5.845-5.999c-4.979-6.301-6.529-13.433-3.421-20.93
				c2.078-5.012,5.365-9.354,11.125-10.802C59.7,239.629,61.171,239.606,62.06,239.499z M69.106,248.138
				c-2.933-2.836-7.283-3.786-11.098-2.341c-0.235,0.089-0.464,0.188-0.687,0.301c-1.254,0.635-2.252,1.78-3.354,2.712
				c-4.019,3.399-4.909,10.7-2.794,15.191c2.124,4.51,5.427,7.94,9.501,10.65c0.532,0.354,1.891,0.161,2.421-0.295
				c3.627-3.12,6.972-6.53,9.292-10.779c1.676-3.07,1.878-6.337,1.056-9.713c-0.573-2.351-2.384-3.728-3.947-5.336
				C69.367,248.395,69.237,248.265,69.106,248.138z M74.858,300.926c0.033-0.577,0.08-1.155,0.109-1.732
				c0.171-3.372-1.841-6.198-3.98-8.808c-1.909-2.331-4.369-4.206-6.533-6.335c-0.824-0.81-1.426-0.631-2.141,0.096
				c-2.706,2.75-5.497,5.419-8.136,8.231c-2.319,2.471-3.314,5.625-3.227,8.899c0.118,4.443,2.124,8.122,6.02,10.417
				c2.296,1.353,4.826,2.565,7.64,1.851C70.702,312.001,74.486,307.431,74.858,300.926z"/>
			<g>
				<path class="st1" d="M62.055,239.349c2.263,0.108,4.492,0.465,6.617,1.251c2.137,0.743,4.096,1.978,5.786,3.508
					c1.677,1.56,3.086,3.363,4.214,5.391c1.117,2.053,1.761,4.321,2.099,6.614c0.327,2.297,0.364,4.647,0.024,6.963
					c-0.317,2.317-0.973,4.614-2.062,6.749l-0.408,0.801l-0.483,0.767l-0.49,0.764l-0.578,0.71l-0.588,0.702l-0.667,0.639
					c-0.219,0.206-0.453,0.438-0.663,0.621l-0.615,0.529l-4.93,4.495l-0.593,0.523c-0.13,0.099-0.174,0.208-0.134,0.076
					c0.016-0.063,0-0.173-0.024-0.226c-0.02-0.051-0.04-0.05-0.008-0.008c0.052,0.081,0.211,0.234,0.436,0.43l0.6,0.553
					c0.19,0.162,0.389,0.324,0.601,0.486c0.423,0.325,0.884,0.652,1.353,1.026c0.461,0.365,0.957,0.809,1.353,1.295
					c0.361,0.445,0.73,0.88,1.072,1.341c0.704,0.903,1.348,1.857,1.951,2.834c2.431,3.899,3.736,8.556,3.447,13.119
					c-0.223,4.507-1.549,9.12-4.505,12.688c-2.883,3.558-7.263,6.034-11.981,6.309c-2.345,0.195-4.741-0.201-6.964-1.054
					c-0.569-0.186-1.085-0.491-1.632-0.735c-0.52-0.288-1.041-0.596-1.536-0.917c-0.955-0.666-1.888-1.374-2.753-2.173
					c-1.735-1.586-3.255-3.462-4.379-5.575c-1.119-2.115-1.817-4.438-2.175-6.779c-0.329-2.368-0.342-4.666-0.091-7.076
					c0.318-2.433,1.196-4.768,2.4-6.837c1.196-2.081,2.714-3.911,4.324-5.564l4.903-4.689l0.515-0.486
					c0.048-0.045,0.048-0.06,0.04-0.035c-0.015,0.027-0.071,0.144-0.076,0.299c-0.01,0.155,0.042,0.303,0.062,0.341
					c0.017,0.04,0.022,0.027-0.016-0.018c-0.031-0.042-0.087-0.103-0.158-0.175l-0.292-0.289l-2.397-2.345
					c-0.805-0.802-1.611-1.631-2.376-2.524c-0.772-0.896-1.455-1.854-2.095-2.837c-2.609-3.89-4.067-8.755-3.549-13.458
					c0.244-2.341,0.903-4.602,1.856-6.692c0.96-2.068,2.118-4.063,3.611-5.797c1.486-1.73,3.302-3.199,5.381-4.118
					c1.03-0.478,2.111-0.817,3.218-1.061C59.819,239.48,60.934,239.454,62.055,239.349z M62.065,239.649
					c-1.097,0.124-2.222,0.174-3.292,0.41c-1.062,0.265-2.128,0.591-3.099,1.107c-1.957,0.997-3.659,2.456-4.934,4.228
					c-1.308,1.748-2.252,3.746-2.979,5.801c-0.719,2.046-1.127,4.175-1.156,6.29c-0.044,2.118,0.379,4.198,1.043,6.174
					c0.685,1.975,1.722,3.822,2.928,5.551c1.227,1.736,2.627,3.266,4.226,4.78l2.432,2.292l0.308,0.294
					c0.128,0.125,0.266,0.264,0.409,0.44c0.141,0.169,0.299,0.392,0.438,0.683c0.14,0.29,0.255,0.718,0.229,1.151
					c-0.021,0.434-0.169,0.821-0.322,1.09c-0.152,0.264-0.318,0.475-0.464,0.631c-0.337,0.351-0.476,0.469-0.686,0.679l-4.775,4.562
					c-1.504,1.538-2.848,3.175-3.933,4.933c-1.077,1.761-1.836,3.669-2.146,5.662c-0.257,2.021-0.304,4.218-0.057,6.277
					c0.261,2.077,0.851,4.086,1.737,5.959c0.901,1.868,2.16,3.563,3.657,5.047c0.746,0.746,1.568,1.423,2.417,2.068
					c0.426,0.305,0.85,0.596,1.288,0.876c0.46,0.235,0.892,0.536,1.378,0.723c1.889,0.858,3.982,1.348,6.098,1.298
					c4.229-0.044,8.469-1.999,11.27-5.323c1.43-1.632,2.489-3.571,3.195-5.631c0.707-2.061,1.037-4.26,1.118-6.442
					c0.082-2.181-0.256-4.358-0.912-6.417c-0.691-2.054-1.713-3.978-2.961-5.749c-0.628-0.883-1.293-1.74-2.014-2.554
					c-0.35-0.415-0.729-0.808-1.097-1.208c-0.333-0.36-0.694-0.642-1.126-0.944l-1.376-0.912c-0.242-0.162-0.489-0.336-0.735-0.522
					l-0.667-0.54c-0.202-0.162-0.482-0.359-0.786-0.71c-0.148-0.171-0.313-0.414-0.425-0.727c-0.116-0.318-0.139-0.715-0.067-1.051
					c0.16-0.685,0.496-1.024,0.76-1.31l0.64-0.608c1.594-1.499,3.122-3.137,4.845-4.652l0.649-0.567
					c0.209-0.186,0.366-0.353,0.552-0.529l0.54-0.52l0.48-0.586l0.481-0.586l0.426-0.637l0.426-0.638l0.365-0.683
					c1.906-3.675,2.733-8.025,2.506-12.299c-0.13-2.137-0.558-4.272-1.405-6.23c-0.86-1.964-2.081-3.84-3.574-5.422
					c-1.49-1.599-3.354-2.842-5.394-3.674C66.485,240.149,64.249,239.794,62.065,239.649z"/>
				<path class="st1" d="M69.002,248.246c-1.215-1.168-2.762-1.995-4.394-2.3c-1.626-0.322-3.297-0.175-4.775,0.324
					c-0.738,0.233-1.465,0.585-2.049,0.931c-0.557,0.369-1.095,0.902-1.692,1.478c-0.573,0.574-1.356,1.255-1.816,1.688
					c-0.49,0.536-0.995,1.089-1.384,1.75c-1.647,2.551-2.606,5.975-2.065,9.241c0.135,0.813,0.376,1.605,0.716,2.346
					c0.367,0.746,0.748,1.501,1.222,2.191c0.902,1.411,2.027,2.667,3.252,3.785c1.22,1.128,2.574,2.088,3.945,2.998l1.046,0.658
					l0.262,0.163c0.035,0.021,0.111,0.067,0.111,0.067c-0.023-0.024-0.072-0.041-0.07-0.046c-0.045-0.023,0.054-0.005,0.16-0.017
					c0.218-0.015,0.533-0.091,0.685-0.177c0.035-0.02,0.054-0.039,0.054-0.039c0-0.009-0.045,0.033-0.002-0.007l0.115-0.107
					l0.461-0.429c2.438-2.307,4.703-4.72,6.584-7.358c0.941-1.315,1.852-2.696,2.445-4.04c0.581-1.39,0.975-2.889,1.077-4.494
					c0.055-0.799,0.051-1.62-0.03-2.445c-0.037-0.426-0.088-0.789-0.183-1.177c-0.11-0.377-0.26-0.748-0.442-1.111
					C71.477,250.67,70.168,249.476,69.002,248.246z M69.211,248.03c1.182,1.243,2.584,2.22,3.715,3.644
					c0.556,0.699,1.008,1.582,1.278,2.439c0.287,0.845,0.53,1.721,0.681,2.629c0.299,1.807,0.244,3.767-0.353,5.592
					c-0.266,0.905-0.701,1.822-1.128,2.588c-0.426,0.796-0.903,1.564-1.41,2.307c-2.054,2.966-4.64,5.446-7.334,7.647l-0.506,0.412
					l-0.126,0.103c-0.037,0.031-0.171,0.133-0.255,0.19c-0.18,0.115-0.349,0.199-0.509,0.266c-0.635,0.251-1.179,0.327-1.814,0.313
					c-0.32-0.017-0.654-0.045-1.098-0.223c-0.101-0.037-0.24-0.114-0.357-0.188l-0.155-0.112l-0.267-0.199
					c-0.36-0.258-0.701-0.546-1.044-0.827c-1.366-1.137-2.602-2.432-3.709-3.81c-1.111-1.377-2.068-2.859-2.924-4.38
					c-0.42-0.768-0.823-1.536-1.18-2.337c-0.349-0.824-0.637-1.666-0.834-2.531c-0.429-1.723-0.549-3.511-0.476-5.314
					c0.083-1.802,0.47-3.636,1.31-5.342c0.415-0.85,0.964-1.66,1.621-2.387c0.762-0.764,1.291-1.182,1.956-1.787
					c0.661-0.576,1.416-1.188,2.374-1.624c0.946-0.42,1.859-0.594,2.795-0.703c1.875-0.195,3.718,0.179,5.368,0.813
					C66.48,245.872,67.95,246.841,69.211,248.03z"/>
				<path class="st1" d="M74.708,300.918c0.04-0.856,0.133-1.731,0.048-2.561c-0.087-0.836-0.326-1.65-0.695-2.398
					c-0.713-1.514-1.851-2.767-3.021-3.975c-0.59-0.619-1.191-1.203-1.777-1.76c-0.606-0.556-1.236-1.098-1.865-1.657
					c-1.264-1.11-2.564-2.267-3.774-3.581c-0.236-0.271-0.346-0.295-0.177-0.303c0.146-0.083-0.127-0.012-0.394,0.227l-1.982,1.671
					c-1.328,1.109-2.621,2.253-3.877,3.434c-0.623,0.595-1.24,1.197-1.835,1.818c-0.603,0.628-1.212,1.214-1.652,1.907
					c-0.946,1.356-1.485,2.951-1.681,4.553c-0.204,1.603-0.044,3.244,0.305,4.777c0.347,1.535,0.97,2.958,1.856,4.178
					c0.897,1.213,2.056,2.214,3.384,2.976c1.413,0.805,2.837,1.554,4.202,1.817c0.682,0.154,1.347,0.17,2.01,0.1
					c0.168-0.026,0.323-0.051,0.503-0.088l0.568-0.146c0.384-0.086,0.753-0.205,1.127-0.32c1.479-0.493,2.902-1.158,4.183-2.116
					C72.798,307.638,74.534,304.339,74.708,300.918z M75.008,300.935c-0.099,1.733-0.352,3.47-0.89,5.171
					c-0.534,1.695-1.352,3.377-2.575,4.804c-1.208,1.427-2.763,2.625-4.504,3.364c-0.435,0.182-0.865,0.39-1.317,0.519l-0.673,0.216
					c-0.238,0.066-0.506,0.13-0.76,0.183c-1.039,0.199-2.123,0.178-3.131-0.008c-1.009-0.192-1.946-0.541-2.805-0.942
					c-0.871-0.407-1.648-0.836-2.423-1.349c-1.613-1.03-3.051-2.412-4.09-4.055c-1.038-1.639-1.694-3.503-1.885-5.373
					c-0.214-1.865-0.033-3.731,0.462-5.504c0.497-1.773,1.361-3.413,2.47-4.827c0.565-0.713,1.196-1.335,1.807-1.927
					c0.616-0.604,1.211-1.228,1.799-1.859c1.167-1.271,2.296-2.578,3.392-3.921l1.653-2.006c0.163-0.192,0.357-0.403,0.628-0.603
					c0.266-0.196,0.651-0.414,1.152-0.456c0.498-0.047,0.972,0.11,1.293,0.286c0.325,0.17,0.579,0.392,0.761,0.556
					c1.253,1.099,2.579,2.179,3.838,3.417c1.256,1.207,2.442,2.701,3.34,4.191c0.934,1.51,1.755,3.151,2.233,4.882
					c0.224,0.869,0.369,1.754,0.377,2.639C75.167,299.226,75.049,300.071,75.008,300.935z"/>
			</g>
		</g>
		<g>
			<path class="st1" d="M523.817,239.978c5.76,1.448,9.047,5.789,11.125,10.802c3.108,7.497,1.558,14.629-3.421,20.93
				c-1.722,2.18-3.848,4.047-5.845,5.999c-0.747,0.731-0.815,1.245-0.015,1.977c1.816,1.662,3.63,3.333,5.339,5.104
				c3.34,3.461,6.005,7.429,6.407,12.301c0.665,8.064-1.86,14.811-8.792,19.67c-6.233,4.369-14.514,3.333-19.765-1.812
				c-3.595-3.522-5.17-7.9-5.561-12.861c-0.549-6.957,2.312-12.547,6.763-17.506c1.015-1.131,2.496-1.831,3.626-2.876
				c0.59-0.546,1.768-1.173,0.495-2.309c-2.073-1.849-4-3.867-6.118-5.66c-6.512-5.511-7.52-17.926-3.603-24.756
				c3.409-5.945,8.238-9.126,15.616-9.483C520.956,239.606,522.428,239.629,523.817,239.978z M512.631,248.528
				c-1.563,1.608-3.375,2.985-3.947,5.336c-0.822,3.376-0.62,6.643,1.056,9.713c2.319,4.249,5.664,7.659,9.292,10.779
				c0.531,0.457,1.89,0.649,2.421,0.295c4.074-2.71,7.377-6.139,9.501-10.65c2.115-4.491,1.225-11.792-2.794-15.191
				c-1.102-0.932-2.1-2.077-3.354-2.712c-0.223-0.113-0.452-0.212-0.687-0.301c-3.815-1.445-8.165-0.495-11.098,2.341
				C512.89,248.265,512.76,248.395,512.631,248.528z M517.518,313.547c2.814,0.714,5.343-0.498,7.64-1.851
				c3.896-2.296,5.902-5.974,6.02-10.417c0.087-3.274-0.907-6.428-3.227-8.899c-2.64-2.812-5.43-5.481-8.136-8.231
				c-0.715-0.727-1.317-0.906-2.141-0.096c-2.164,2.129-4.624,4.004-6.533,6.335c-2.139,2.61-4.151,5.436-3.98,8.808
				c0.029,0.577,0.076,1.155,0.109,1.732C507.641,307.431,511.426,312.001,517.518,313.547z"/>
			<g>
				<path class="st1" d="M523.853,239.833c2.149,0.531,4.188,1.54,5.888,2.975c1.747,1.391,3.091,3.21,4.25,5.105
					c1.117,1.921,2.057,3.962,2.668,6.146c0.603,2.178,0.866,4.491,0.654,6.786c-0.209,2.289-0.768,4.577-1.748,6.667
					c-0.962,2.103-2.207,4.037-3.677,5.811c-1.473,1.77-3.12,3.288-4.695,4.779l-0.584,0.562c-0.146,0.135-0.24,0.277-0.224,0.25
					c0.007-0.014,0.043-0.111,0.036-0.217c-0.001-0.105-0.047-0.191-0.047-0.191c-0.003-0.008,0.012,0.025,0.061,0.076
					c0.046,0.057,0.087,0.094,0.199,0.206l2.364,2.338c1.57,1.561,3.168,3.078,4.564,4.895c1.395,1.787,2.625,3.753,3.449,5.908
					c0.413,1.075,0.723,2.192,0.911,3.327c0.207,1.143,0.211,2.286,0.231,3.396c-0.022,2.241-0.236,4.493-0.828,6.664
					c-1.107,4.366-3.808,8.258-7.32,11.01c-1.713,1.425-3.753,2.554-5.932,3.211c-2.18,0.683-4.521,0.806-6.797,0.507
					c-4.561-0.601-8.868-3.248-11.566-7.049c-1.367-1.898-2.352-4.067-2.967-6.304c-0.619-2.247-0.912-4.514-0.892-6.866
					c0.034-4.704,1.809-9.321,4.474-13.054c0.66-0.942,1.359-1.853,2.101-2.717c0.198-0.227,0.34-0.412,0.583-0.673
					c0.237-0.257,0.484-0.485,0.729-0.693c0.491-0.42,0.981-0.751,1.428-1.067c0.447-0.312,0.857-0.602,1.2-0.893l0.625-0.541
					c0.193-0.153,0.289-0.276,0.246-0.222c-0.014,0.023-0.079,0.137-0.095,0.292c-0.022,0.159,0.018,0.32,0.043,0.384
					c0.067,0.137,0.02,0.037-0.08-0.049l-1.241-1.134c-1.635-1.514-3.142-3.075-4.736-4.453c-1.856-1.584-3.28-3.635-4.254-5.778
					c-1.916-4.336-2.381-9.09-1.653-13.627c0.386-2.265,1.08-4.498,2.237-6.518c1.141-1.982,2.582-3.747,4.269-5.262
					c0.861-0.736,1.768-1.413,2.742-1.979c0.983-0.548,2.002-1.024,3.058-1.386c2.111-0.74,4.331-1.028,6.529-1.143l0.014-0.001
					l0.017,0.002C521.324,239.451,522.613,239.505,523.853,239.833z M523.78,240.124c-1.213-0.296-2.462-0.325-3.735-0.44
					l0.031,0.001c-2.171,0.126-4.331,0.549-6.328,1.356c-2.004,0.799-3.785,2.05-5.268,3.568c-1.444,1.55-2.654,3.348-3.531,5.255
					c-0.861,1.876-1.309,3.946-1.471,6.021c-0.156,2.078-0.075,4.179,0.292,6.219c0.336,2.042,0.939,4.033,1.828,5.845
					c0.876,1.825,2.051,3.433,3.562,4.675c1.745,1.465,3.337,3.012,4.901,4.494l1.183,1.087c0.296,0.288,0.636,0.595,0.915,1.241
					c0.133,0.315,0.222,0.756,0.166,1.187c-0.05,0.426-0.218,0.802-0.384,1.052c-0.342,0.515-0.667,0.758-0.892,0.955l-0.619,0.533
					c-0.495,0.416-0.984,0.754-1.437,1.069c-0.45,0.311-0.864,0.604-1.213,0.888c-0.176,0.142-0.335,0.284-0.473,0.427
					c-0.135,0.135-0.339,0.376-0.505,0.558c-0.704,0.783-1.359,1.599-1.977,2.438c-2.487,3.337-4.071,7.247-4.206,11.346
					c-0.09,4.096,0.706,8.39,2.981,11.794c2.224,3.453,5.801,6.053,9.928,6.831c2.044,0.377,4.19,0.385,6.231-0.14
					c2.059-0.496,3.941-1.504,5.648-2.818c1.708-1.303,3.211-2.868,4.407-4.641c1.174-1.785,2.063-3.764,2.531-5.852
					c0.466-2.086,0.635-4.239,0.49-6.378c-0.104-2.167-0.542-4.185-1.436-6.087c-0.873-1.893-2.098-3.618-3.502-5.198
					c-1.367-1.599-3.092-2.969-4.66-4.464l-2.39-2.206c-0.209-0.198-0.539-0.469-0.809-0.956c-0.137-0.238-0.264-0.593-0.279-0.971
					c-0.019-0.38,0.081-0.751,0.205-1.013c0.255-0.522,0.534-0.794,0.776-1.043l0.597-0.582c1.581-1.548,3.177-2.995,4.561-4.556
					c2.71-3.162,4.896-6.867,5.585-10.997c0.727-4.122-0.207-8.483-2.152-12.346c-0.963-1.928-2.236-3.72-3.854-5.158
					C527.863,241.67,525.876,240.679,523.78,240.124z"/>
				<path class="st1" d="M512.739,248.632c-1.194,1.215-2.506,2.403-3.135,3.923c-0.335,0.744-0.42,1.521-0.474,2.367
					c-0.055,0.826-0.036,1.645,0.045,2.442c0.152,1.598,0.581,3.09,1.208,4.48c0.302,0.689,0.698,1.365,1.112,2.084
					c0.41,0.703,0.828,1.406,1.28,2.093c1.772,2.761,3.848,5.491,6.363,7.786l0.224,0.203c0.045,0.039,0.107,0.083,0.181,0.12
					c0.144,0.079,0.32,0.136,0.498,0.178c0.353,0.085,0.762,0.105,1.038,0.016c0.076-0.032,0.079-0.026,0.164-0.087l0.259-0.182
					l0.515-0.366c0.34-0.249,0.673-0.507,0.993-0.781c1.306-1.062,2.454-2.302,3.459-3.62c1.012-1.318,1.836-2.748,2.564-4.2
					c0.733-1.511,1.285-2.852,1.439-4.401c0.355-3.045-0.278-6.299-1.78-8.808c-0.393-0.607-0.807-1.207-1.318-1.681
					c-0.113-0.121-0.241-0.252-0.434-0.422l-0.489-0.469l-0.881-0.894c-0.28-0.279-0.554-0.533-0.828-0.751
					c-0.268-0.235-0.518-0.41-0.839-0.58c-0.631-0.339-1.362-0.656-2.106-0.86c-1.497-0.407-3.169-0.501-4.774-0.088
					C515.422,246.543,513.903,247.4,512.739,248.632z M512.524,248.423c2.346-2.5,5.744-4.273,9.557-4.175
					c0.946,0.05,1.878,0.184,2.82,0.511c0.472,0.15,0.979,0.38,1.408,0.642c0.428,0.27,0.814,0.561,1.175,0.848
					c0.357,0.289,0.697,0.566,1.01,0.839l0.462,0.391c0.136,0.104,0.32,0.265,0.514,0.441c0.789,0.645,1.38,1.452,1.939,2.259
					c2.046,3.358,2.55,7.271,1.862,10.961c-0.175,0.925-0.436,1.846-0.826,2.729c-0.394,0.918-0.832,1.634-1.321,2.411
					c-0.976,1.513-2.159,2.872-3.43,4.101c-1.275,1.229-2.655,2.314-4.062,3.332l-1.067,0.746l-0.54,0.363l-0.271,0.18
					c-0.088,0.065-0.282,0.16-0.409,0.194c-0.553,0.139-1.023,0.096-1.502,0.003c-0.238-0.051-0.472-0.124-0.712-0.233
					c-0.12-0.054-0.241-0.122-0.363-0.216l-0.263-0.214c-2.648-2.177-5.489-4.27-7.747-7.046c-0.547-0.701-1.099-1.407-1.562-2.175
					c-0.464-0.747-0.924-1.557-1.268-2.454c-0.693-1.767-0.879-3.712-0.663-5.531c0.109-0.913,0.316-1.798,0.575-2.653
					c0.257-0.83,0.572-1.742,1.088-2.492C509.946,250.673,511.348,249.649,512.524,248.423z"/>
				<path class="st1" d="M517.555,313.401c1.649,0.437,3.403,0.07,4.868-0.734c0.745-0.39,1.444-0.862,2.124-1.377
					c0.676-0.511,1.291-1.032,1.831-1.631c2.205-2.346,3.259-5.259,3.552-8.415c0.139-1.573,0.068-3.183-0.356-4.74
					c-0.422-1.566-1.226-3.011-2.414-4.238c-2.35-2.515-4.882-4.861-7.503-7.111l-0.485-0.418c-0.136-0.114-0.271-0.205-0.369-0.245
					c-0.102-0.042-0.131-0.015-0.109,0c0.023,0.012,0.006,0.028-0.065,0.092c-0.107,0.09-0.438,0.499-0.736,0.815l-0.911,0.953
					c-1.221,1.25-2.472,2.404-3.57,3.622c-0.561,0.615-1.032,1.21-1.544,1.899c-0.503,0.666-0.978,1.332-1.396,2.007
					c-0.834,1.349-1.487,2.708-1.66,4.086c-0.054,0.343-0.075,0.687-0.073,1.032l0.04,1.257c0.01,0.442,0.032,0.841,0.057,1.226
					c0.012,0.396,0.052,0.784,0.095,1.175c0.09,0.781,0.25,1.544,0.422,2.315c0.227,0.747,0.443,1.517,0.791,2.235
					c0.653,1.451,1.607,2.847,2.912,3.905C514.341,312.188,515.901,312.975,517.555,313.401z M517.481,313.692
					c-1.684-0.429-3.336-1.026-4.891-1.905c-1.555-0.87-3.005-2.051-4.148-3.538c-1.146-1.479-1.972-3.245-2.356-5.085
					c-0.226-0.896-0.318-1.897-0.397-2.736c-0.038-0.444-0.088-0.836-0.108-1.324c-0.023-0.516-0.008-1.036,0.054-1.547
					c0.27-2.057,1.163-3.885,2.22-5.399c1.08-1.515,2.192-2.859,3.519-4.152c1.3-1.261,2.661-2.363,3.988-3.432l0.985-0.804
					l0.488-0.4c0.154-0.127,0.408-0.353,0.694-0.51c0.289-0.164,0.686-0.327,1.144-0.311c0.455,0.012,0.845,0.195,1.107,0.381
					c0.268,0.189,0.457,0.387,0.625,0.578l0.424,0.501c2.226,2.654,4.54,5.21,7.036,7.598c1.302,1.158,2.453,2.653,3.254,4.31
					c0.81,1.664,1.259,3.528,1.307,5.398c0.032,1.859-0.286,3.792-1.13,5.528c-0.812,1.746-2.15,3.223-3.681,4.278
					c-1.566,1.063-3.219,1.684-4.899,2.262C521.022,313.915,519.198,314.133,517.481,313.692z"/>
			</g>
		</g>
	</g>
	<g>
		<g>
			<path class="st1" d="M190.155,302.537c0,0,7.742,9.402,10.74,12.306c2.649,2.566,11.849,9.572,11.849,9.572
				s1.078-9.486,0.933-12.662c-0.342-7.5,8.423-18.027,8.423-18.027L190.155,302.537z"/>
			<path class="st1" d="M190.25,302.567c0.039,0.01,0.065-0.002,0.075,0.002l0.081,0.08l0.175,0.176l0.349,0.351l0.688,0.71
				l1.371,1.424c0.924,0.94,1.81,1.912,2.719,2.863c1.796,1.911,3.578,3.864,5.405,5.678c0.896,0.89,1.905,1.703,2.913,2.536
				l3.02,2.512l6.004,5.114l-0.81,0.346c0.457-2.704,0.776-5.434,0.971-8.165c0.09-1.363,0.163-2.74,0.107-4.084
				c-0.013-0.665-0.056-1.415,0.002-2.113c0.074-0.705,0.147-1.415,0.322-2.098c0.593-2.77,1.72-5.372,3.066-7.816
				c1.33-2.47,2.894-4.754,4.624-6.994l1.033,1.602c-2.578,0.774-5.152,1.493-7.737,2.179c-2.602,0.659-5.201,1.314-7.86,1.929
				L190.25,302.567z M190.059,302.507l7.557-2.486c2.564-0.852,5.196-1.712,7.87-2.555c2.666-0.853,5.39-1.667,8.113-2.476
				c2.74-0.782,5.49-1.531,8.236-2.226l3.013-0.762l-1.98,2.364c-1.708,2.039-3.285,4.281-4.72,6.555
				c-1.401,2.298-2.735,4.671-3.501,7.233c-0.423,1.285-0.578,2.573-0.596,3.94c-0.016,1.402-0.133,2.769-0.229,4.144
				c-0.205,2.746-0.429,5.481-0.574,8.236l-0.046,0.877l-0.764-0.532c-2.166-1.508-4.337-3.004-6.451-4.588
				c-2.107-1.603-4.157-3.229-6.088-5.174c-1.844-1.957-3.493-4.001-5.136-6.072c-0.803-1.047-1.619-2.083-2.389-3.156l-1.163-1.602
				l-0.574-0.807l-0.28-0.409l-0.14-0.205l-0.076-0.11C190.099,302.636,190.073,302.56,190.059,302.507z"/>
		</g>
		<g>
			<path class="st1" d="M306.094,212.808c15.596,34.729-32.518,60.577-69.144,80.276c-36.682,19.729-80.41,7.81-89.244-14.928
				c-8.834-22.739,16.936-61.903,55.914-76.757C243.064,186.367,294.889,187.857,306.094,212.808z"/>
			<path class="st1" d="M306.185,212.767c1.857,4.082,3.02,8.526,3.077,13.037c0.085,4.51-0.924,9.004-2.693,13.144
				c-1.757,4.156-4.231,7.98-7.051,11.489c-2.828,3.512-6.002,6.73-9.349,9.74c-3.355,3.004-6.882,5.809-10.507,8.472
				c-3.64,2.643-7.385,5.135-11.182,7.535c-3.798,2.4-7.648,4.713-11.54,6.948c-3.906,2.211-7.839,4.368-11.785,6.495l-5.924,3.177
				c-1.961,1.06-3.978,2.119-6.038,3.045c-4.112,1.881-8.378,3.414-12.731,4.603c-8.708,2.401-17.78,3.31-26.765,2.894
				c-4.494-0.223-8.97-0.817-13.356-1.816c-4.386-0.993-8.698-2.355-12.806-4.211c-4.104-1.855-8.001-4.208-11.466-7.124
				c-3.443-2.92-6.449-6.477-8.358-10.649c-1.939-4.168-2.583-8.844-2.348-13.388c0.231-4.564,1.307-9.038,2.856-13.3
				c3.137-8.535,8.059-16.3,13.887-23.204c5.846-6.905,12.625-13.008,20.069-18.152c7.446-5.137,15.625-9.24,24.163-12.192
				c8.512-2.991,17.289-5.223,26.2-6.584c8.905-1.369,17.936-2.005,26.938-1.587c8.979,0.43,18.003,1.738,26.457,4.88
				c4.2,1.593,8.291,3.586,11.855,6.354C301.356,205.103,304.356,208.646,306.185,212.767z M306.002,212.849
				c-1.858-4.067-4.862-7.538-8.427-10.202c-3.564-2.681-7.614-4.679-11.827-6.124c-8.454-2.889-17.421-3.957-26.314-4.114
				c-17.826-0.178-35.634,2.973-52.414,8.837c-8.394,2.915-16.335,6.986-23.66,11.989c-7.334,4.982-14.033,10.919-19.818,17.644
				c-5.751,6.733-10.667,14.269-13.84,22.531c-1.554,4.13-2.67,8.443-2.994,12.831c-0.315,4.373,0.205,8.848,1.978,12.867
				c1.752,4.032,4.598,7.545,7.916,10.468c3.325,2.94,7.181,5.254,11.214,7.124c4.05,1.85,8.303,3.267,12.658,4.231
				c4.358,0.95,8.801,1.499,13.255,1.678c8.915,0.385,17.864-0.859,26.382-3.381c4.26-1.268,8.419-2.869,12.411-4.805
				c3.965-1.949,7.879-4.177,11.814-6.298c3.927-2.148,7.836-4.322,11.712-6.549c3.884-2.212,7.754-4.447,11.553-6.795
				c3.805-2.337,7.54-4.784,11.194-7.341c3.661-2.546,7.225-5.234,10.621-8.12c3.388-2.891,6.606-5.992,9.483-9.391
				c2.87-3.396,5.404-7.106,7.24-11.167c1.839-4.053,2.835-8.497,2.803-12.953C308.926,221.345,307.814,216.927,306.002,212.849z"/>
		</g>
		<g>
			<path class="st3" d="M157.017,264.869l3.022-1.174l3.486,8.975l1.071-0.65l0.577-5.129l3.383-1.314l-0.855,6.484l5.394,4.73
				l-3.405,1.322l-3.986-3.513l-1.161,0.686l1.63,4.194l-3.022,1.174L157.017,264.869z"/>
			<path class="st3" d="M169.091,260.203l3.022-1.174l1.183,3.045l-3.022,1.174L169.091,260.203z M170.834,264.691l3.022-1.174
				l4.381,11.275l-3.022,1.174L170.834,264.691z"/>
			<path class="st3" d="M178.484,266.21l6.674-2.594l1.069,2.751l-6.675,2.594L178.484,266.21z"/>
			<path class="st3" d="M191.398,269.523l-0.774,0.146l-0.891-2.561c1.912-0.466,3.282-0.86,4.109-1.182
				c0.556-0.216,0.973-0.446,1.249-0.693c0.276-0.245,0.351-0.532,0.222-0.863c-0.116-0.301-0.354-0.46-0.716-0.475
				c-0.361-0.017-0.925,0.057-1.694,0.216c-0.281,0.076-0.481,0.119-0.598,0.129c-0.805,0.157-1.486,0.228-2.046,0.211
				c-0.562-0.016-1.077-0.187-1.551-0.513c-0.473-0.327-0.863-0.889-1.173-1.687c-0.496-1.277-0.474-2.377,0.067-3.298
				c0.543-0.92,1.499-1.645,2.867-2.177c0.812-0.315,2.062-0.636,3.751-0.965l0.797-0.153l0.928,2.521
				c-1.913,0.467-3.305,0.868-4.178,1.207c-0.51,0.198-0.893,0.408-1.145,0.627s-0.319,0.479-0.203,0.779
				c0.123,0.316,0.359,0.479,0.709,0.49c0.351,0.011,0.888-0.056,1.61-0.198l0.843-0.171c1.296-0.227,2.292-0.202,2.987,0.072
				c0.694,0.275,1.246,0.939,1.655,1.99c0.502,1.294,0.505,2.393,0.008,3.295s-1.513,1.651-3.046,2.247
				C194.194,268.904,192.932,269.24,191.398,269.523z"/>
			<path class="st3" d="M196.098,249.686l3.021-1.175l1.963,5.051c0.46-0.507,0.887-0.911,1.281-1.21
				c0.394-0.302,0.846-0.55,1.357-0.749c1.383-0.537,2.535-0.479,3.455,0.176s1.744,1.915,2.468,3.778l2.374,6.111l-3.022,1.174
				l-2.348-6.043c-0.397-1.022-0.798-1.697-1.202-2.026c-0.404-0.326-0.952-0.355-1.644-0.087c-0.541,0.21-1.069,0.519-1.585,0.928
				l-0.259,0.203l3.294,8.479l-3.021,1.175L196.098,249.686z"/>
			<path class="st3" d="M213.075,257.312c-0.455-1.173-0.472-2.14-0.049-2.9c0.422-0.762,1.308-1.456,2.656-2.083l2.343-1.118
				l-0.271-0.699c-0.176-0.451-0.4-0.727-0.674-0.829c-0.273-0.101-0.65-0.059-1.131,0.128c-0.496,0.193-1.173,0.479-2.029,0.854
				c-0.858,0.377-1.571,0.701-2.14,0.974l-0.905-2.062c1.455-1.065,2.903-1.88,4.347-2.44c1.443-0.562,2.601-0.664,3.474-0.312
				c0.872,0.354,1.565,1.191,2.079,2.514l1.822,4.691c0.177,0.364,0.339,0.595,0.49,0.692c0.15,0.098,0.372,0.123,0.667,0.078
				l0.795,2.312c-0.782,0.304-1.424,0.492-1.923,0.565c-0.5,0.072-1.037,0.038-1.609-0.102c-0.894,0.952-1.896,1.645-3.009,2.077
				C215.678,260.558,214.033,259.778,213.075,257.312z M219.474,255.943l0.304-0.222l-0.938-2.413l-1.982,0.979
				c-0.813,0.401-1.059,1.016-0.737,1.843s0.85,1.097,1.587,0.811C218.278,256.719,218.867,256.387,219.474,255.943z"/>
			<path class="st3" d="M225.049,252.661c-0.455-1.173-0.471-2.141-0.049-2.901c0.423-0.761,1.307-1.455,2.656-2.083l2.343-1.118
				l-0.271-0.699c-0.176-0.451-0.4-0.726-0.673-0.828c-0.273-0.102-0.65-0.059-1.131,0.128c-0.496,0.192-1.174,0.478-2.03,0.854
				c-0.858,0.377-1.571,0.701-2.14,0.974l-0.905-2.062c1.454-1.065,2.903-1.88,4.347-2.44s2.602-0.663,3.473-0.311
				c0.873,0.353,1.567,1.19,2.081,2.513l1.822,4.691c0.175,0.364,0.339,0.595,0.489,0.692s0.372,0.123,0.666,0.078l0.796,2.312
				c-0.782,0.304-1.424,0.492-1.923,0.565s-1.036,0.039-1.609-0.102c-0.894,0.953-1.896,1.645-3.009,2.077
				C227.651,255.906,226.007,255.127,225.049,252.661z M231.447,251.291l0.305-0.222l-0.938-2.413l-1.983,0.979
				c-0.812,0.402-1.058,1.016-0.737,1.843c0.322,0.827,0.851,1.098,1.588,0.812C230.252,252.067,230.841,251.734,231.447,251.291z"
				/>
			<path class="st3" d="M232.967,235.362l3.021-1.175l3.486,8.975l1.072-0.649l0.576-5.129l3.383-1.314l-0.854,6.483l5.393,4.73
				l-3.405,1.323l-3.986-3.513l-1.161,0.685l1.63,4.194l-3.021,1.175L232.967,235.362z"/>
			<path class="st3" d="M245.04,230.696l3.022-1.174l1.183,3.045l-3.022,1.174L245.04,230.696z M246.783,235.184l3.022-1.174
				l4.381,11.275l-3.022,1.174L246.783,235.184z"/>
			<path class="st3" d="M251.301,228.239l3.021-1.174l1.963,5.051c0.46-0.507,0.887-0.911,1.281-1.211
				c0.394-0.301,0.846-0.55,1.357-0.749c1.383-0.537,2.535-0.479,3.455,0.177c0.92,0.654,1.744,1.914,2.468,3.777l2.374,6.111
				l-3.022,1.174l-2.348-6.043c-0.397-1.022-0.798-1.697-1.202-2.025c-0.404-0.326-0.952-0.356-1.644-0.088
				c-0.541,0.211-1.069,0.52-1.585,0.928l-0.259,0.204l3.294,8.479l-3.021,1.174L251.301,228.239z"/>
			<path class="st3" d="M264.231,223.24l3.022-1.174l1.183,3.045l-3.022,1.174L264.231,223.24z M265.974,227.728l3.022-1.174
				l4.381,11.275l-3.022,1.174L265.974,227.728z"/>
			<path class="st3" d="M278.128,235.828c-0.587-0.083-1.104-0.393-1.555-0.927c-0.449-0.535-0.885-1.344-1.306-2.427l-1.822-4.69
				l-1.33,0.518l-0.999-2.57l1.33-0.518l-1.218-3.135l3.021-1.174l1.218,3.135l2.774-1.077l0.999,2.57l-2.774,1.077l1.796,4.623
				c0.228,0.587,0.446,0.991,0.653,1.214c0.208,0.223,0.519,0.244,0.935,0.064l1.695-0.71l1.073,2.36
				c-0.549,0.368-0.983,0.641-1.304,0.817c-0.321,0.178-0.654,0.332-1,0.467C279.443,235.785,278.714,235.913,278.128,235.828z"/>
			<path class="st3" d="M278.912,217.537l3.021-1.175l1.183,3.045l-3.021,1.175L278.912,217.537z M280.655,222.025l3.021-1.175
				l4.381,11.275l-3.021,1.175L280.655,222.025z"/>
			<path class="st3" d="M286.924,219.59l3-1.166l0.246,0.632c0.441-0.553,0.859-0.982,1.25-1.29s0.842-0.561,1.353-0.76
				c1.383-0.537,2.54-0.477,3.471,0.184c0.932,0.659,1.757,1.913,2.476,3.762l2.374,6.111l-3.022,1.174l-2.34-6.021
				c-0.402-1.037-0.81-1.718-1.222-2.043c-0.411-0.323-0.964-0.352-1.654-0.083c-0.496,0.192-1.019,0.517-1.568,0.974l-0.235,0.194
				l3.276,8.434l-3.022,1.175L286.924,219.59z"/>
		</g>
	</g>
</g>
</svg>
